HIERARCHY
ROOT Hip
{
	OFFSET	0.0000	0.0000	0.0000
	CHANNELS 6 Xposition Yposition Zposition Xrotation Yrotation Zrotation
	JOINT LowerSpine
	{
		OFFSET	0.0000	9.1202	-4.9353
		CHANNELS 3 Xrotation Yrotation Zrotation
		JOINT MiddleSpine
		{
			OFFSET	0.0000	8.3229	0.4348
			CHANNELS 3 Xrotation Yrotation Zrotation
			JOINT Chest
			{
				OFFSET	0.0000	10.2986	-2.2924
				CHANNELS 3 Xrotation Yrotation Zrotation
				JOINT Neck
				{
					OFFSET	0.0000	23.2075	-0.4826
					CHANNELS 3 Xrotation Yrotation Zrotation
					JOINT Head
					{
						OFFSET	0.0000	13.1056	3.5647
						CHANNELS 3 Xrotation Yrotation Zrotation
						End Site
						{
							OFFSET	0.0001	18.3119	0.5466
						}
					}
				}
				JOINT LClavicle
				{
					OFFSET	2.3430	22.3964	7.6731
					CHANNELS 3 Xrotation Yrotation Zrotation
					JOINT LShoulder
					{
						OFFSET	13.6881	3.2125	-5.1980
						CHANNELS 3 Xrotation Yrotation Zrotation
						JOINT LForearm
						{
							OFFSET	29.0763	-0.1033	-0.2520
							CHANNELS 3 Xrotation Yrotation Zrotation
							JOINT LHand
							{
								OFFSET	24.2557	0.0704	-0.1453
								CHANNELS 3 Xrotation Yrotation Zrotation
								JOINT LFinger1
								{
									OFFSET	9.4008	0.8221	2.6110
									CHANNELS 3 Xrotation Yrotation Zrotation
									JOINT LFinger11
									{
										OFFSET	3.5164	-0.8575	0.6196
										CHANNELS 3 Xrotation Yrotation Zrotation
										JOINT LFinger12
										{
											OFFSET	2.4005	-0.5856	0.4232
											CHANNELS 3 Xrotation Yrotation Zrotation
											End Site
											{
												OFFSET	1.7082	-0.5099	0.2771
											}
										}
									}
								}
								JOINT LFinger2
								{
									OFFSET	9.5411	0.9494	0.2273
									CHANNELS 3 Xrotation Yrotation Zrotation
									JOINT LFinger21
									{
										OFFSET	4.3478	0.0121	-0.0257
										CHANNELS 3 Xrotation Yrotation Zrotation
										JOINT LFinger22
										{
											OFFSET	2.4099	0.0073	-0.0147
											CHANNELS 3 Xrotation Yrotation Zrotation
											End Site
											{
												OFFSET	2.1646	-0.1528	0.0029
											}
										}
									}
								}
								JOINT LFinger3
								{
									OFFSET	9.0422	0.6335	-2.1392
									CHANNELS 3 Xrotation Yrotation Zrotation
									JOINT LFinger31
									{
										OFFSET	3.9452	-0.1998	-0.2470
										CHANNELS 3 Xrotation Yrotation Zrotation
										JOINT LFinger32
										{
											OFFSET	2.2481	-0.1131	-0.1413
											CHANNELS 3 Xrotation Yrotation Zrotation
											End Site
											{
												OFFSET	1.9878	-0.2444	-0.0940
											}
										}
									}
								}
								JOINT LFinger4
								{
									OFFSET	8.3908	-0.6377	-3.6945
									CHANNELS 3 Xrotation Yrotation Zrotation
									JOINT LFinger41
									{
										OFFSET	2.4267	-0.5061	-0.6699
										CHANNELS 3 Xrotation Yrotation Zrotation
										JOINT LFinger42
										{
											OFFSET	1.7795	-0.3706	-0.4915
											CHANNELS 3 Xrotation Yrotation Zrotation
											End Site
											{
												OFFSET	1.5794	-0.4340	-0.3624
											}
										}
									}
								}
								JOINT LFinger0
								{
									OFFSET	1.9446	-1.4719	1.4742
									CHANNELS 3 Xrotation Yrotation Zrotation
									JOINT LFinger01
									{
										OFFSET	3.6207	-1.1892	2.7298
										CHANNELS 3 Xrotation Yrotation Zrotation
										JOINT LFinger02
										{
											OFFSET	2.3842	-0.8531	1.7177
											CHANNELS 3 Xrotation Yrotation Zrotation
											End Site
											{
												OFFSET	1.7532	-0.6035	1.2005
											}
										}
									}
								}
							}
						}
					}
				}
				JOINT RClavicle
				{
					OFFSET	-2.3430	22.3964	7.6731
					CHANNELS 3 Xrotation Yrotation Zrotation
					JOINT RShoulder
					{
						OFFSET	-13.6905	3.2130	-5.1989
						CHANNELS 3 Xrotation Yrotation Zrotation
						JOINT RForearm
						{
							OFFSET	-29.0763	-0.1032	-0.2520
							CHANNELS 3 Xrotation Yrotation Zrotation
							JOINT RHand
							{
								OFFSET	-24.2557	0.0704	-0.1453
								CHANNELS 3 Xrotation Yrotation Zrotation
								JOINT RFinger1
								{
									OFFSET	-9.4008	0.8221	2.6110
									CHANNELS 3 Xrotation Yrotation Zrotation
									JOINT RFinger11
									{
										OFFSET	-3.5164	-0.8575	0.6196
										CHANNELS 3 Xrotation Yrotation Zrotation
										JOINT RFinger12
										{
											OFFSET	-2.4005	-0.5856	0.4232
											CHANNELS 3 Xrotation Yrotation Zrotation
											End Site
											{
												OFFSET	-1.7082	-0.5099	0.2771
											}
										}
									}
								}
								JOINT RFinger2
								{
									OFFSET	-9.5411	0.9494	0.2273
									CHANNELS 3 Xrotation Yrotation Zrotation
									JOINT RFinger21
									{
										OFFSET	-4.3478	0.0121	-0.0257
										CHANNELS 3 Xrotation Yrotation Zrotation
										JOINT RFinger22
										{
											OFFSET	-2.4099	0.0073	-0.0147
											CHANNELS 3 Xrotation Yrotation Zrotation
											End Site
											{
												OFFSET	-2.1646	-0.1528	0.0029
											}
										}
									}
								}
								JOINT RFinger3
								{
									OFFSET	-9.0422	0.6335	-2.1392
									CHANNELS 3 Xrotation Yrotation Zrotation
									JOINT RFinger31
									{
										OFFSET	-3.9452	-0.1997	-0.2470
										CHANNELS 3 Xrotation Yrotation Zrotation
										JOINT RFinger32
										{
											OFFSET	-2.2481	-0.1131	-0.1413
											CHANNELS 3 Xrotation Yrotation Zrotation
											End Site
											{
												OFFSET	-1.9878	-0.2444	-0.0940
											}
										}
									}
								}
								JOINT RFinger4
								{
									OFFSET	-8.3908	-0.6377	-3.6945
									CHANNELS 3 Xrotation Yrotation Zrotation
									JOINT RFinger41
									{
										OFFSET	-2.4267	-0.5061	-0.6699
										CHANNELS 3 Xrotation Yrotation Zrotation
										JOINT RFinger42
										{
											OFFSET	-1.7795	-0.3706	-0.4915
											CHANNELS 3 Xrotation Yrotation Zrotation
											End Site
											{
												OFFSET	-1.5794	-0.4340	-0.3624
											}
										}
									}
								}
								JOINT RFinger0
								{
									OFFSET	-1.9446	-1.4719	1.4742
									CHANNELS 3 Xrotation Yrotation Zrotation
									JOINT RFinger01
									{
										OFFSET	-3.6207	-1.1892	2.7298
										CHANNELS 3 Xrotation Yrotation Zrotation
										JOINT RFinger02
										{
											OFFSET	-2.3842	-0.8531	1.7177
											CHANNELS 3 Xrotation Yrotation Zrotation
											End Site
											{
												OFFSET	-1.7532	-0.6035	1.2005
											}
										}
									}
								}
							}
						}
					}
				}
			}
		}
	}
	JOINT RThigh
	{
		OFFSET	-9.7564	4.1226	-0.8042
		CHANNELS 3 Xrotation Yrotation Zrotation
		JOINT RShin
		{
			OFFSET	-0.7807	-42.4358	0.0000
			CHANNELS 3 Xrotation Yrotation Zrotation
			JOINT RFoot
			{
				OFFSET	0.0000	-41.6693	0.0000
				CHANNELS 3 Xrotation Yrotation Zrotation
				JOINT RToe
				{
					OFFSET	0.0000	-4.5798	9.5770
					CHANNELS 3 Xrotation Yrotation Zrotation
					End Site
					{
						OFFSET	0.0000	0.0000	6.4249
					}
				}
			}
		}
	}
	JOINT LThigh
	{
		OFFSET	9.7563	4.1229	-0.8042
		CHANNELS 3 Xrotation Yrotation Zrotation
		JOINT LShin
		{
			OFFSET	0.7807	-42.4361	0.0000
			CHANNELS 3 Xrotation Yrotation Zrotation
			JOINT LFoot
			{
				OFFSET	0.0000	-41.6693	0.0000
				CHANNELS 3 Xrotation Yrotation Zrotation
				JOINT LToe
				{
					OFFSET	0.0000	-4.5799	9.5771
					CHANNELS 3 Xrotation Yrotation Zrotation
					End Site
					{
						OFFSET	0.0000	0.0000	6.4248
					}
				}
			}
		}
	}
}
MOTION
Frames:	6
Frame Time: 0.0333333000
	-0.3208	49.3052	2.8017	7.675957	-0.000004	15.536780	0.000000	0.000000	0.000000	0.152377	-0.449325	-3.018511	0.415435	-1.524284	-10.058600	0.000000	0.000000	0.000000	0.000000	0.000000	0.000000	0.000000	0.000000	-9.366718	33.725600	10.279400	-60.204350	3.000937	-31.086200	0.014898	0.000000	0.000000	0.000000	0.000000	0.000000	0.000000	0.000000	0.000000	0.000000	0.000000	0.000000	0.000000	0.000000	0.000000	0.000000	0.000000	0.000000	0.000000	0.000000	0.000000	0.000000	0.000000	0.000000	0.000000	0.000000	0.000000	0.000000	0.000000	0.000000	0.000000	0.000000	0.000000	0.000000	0.000000	0.000000	0.000000	0.000000	0.000000	0.000000	0.000000	0.000000	0.000000	0.000000	0.000000	0.000000	0.000000	0.000000	0.000000	0.000000	0.000000	7.648475	45.264770	-9.998401	62.741220	16.150800	65.501610	0.349562	0.000000	0.000000	0.000000	0.000000	0.000000	0.000000	0.000000	0.000000	0.000000	0.000000	0.000000	0.000000	0.000000	0.000000	0.000000	0.000000	0.000000	0.000000	0.000000	0.000000	0.000000	0.000000	0.000000	0.000000	0.000000	0.000000	0.000000	0.000000	0.000000	0.000000	0.000000	0.000000	0.000000	0.000000	0.000000	0.000000	0.000000	0.000000	0.000000	0.000000	0.000000	0.000000	0.000000	0.000000	0.000000	0.000000	0.000000	0.000000	-99.276620	12.122280	-8.475347	74.233270	-1.103111	1.084968	0.004013	0.383219	0.171627	0.000000	0.000000	0.000000	-89.005000	12.023010	-1.152551	61.601510	7.199685	-11.922520	-0.983114	0.390958	0.193135	0.000000	0.000000	0.000000
	-0.5758	48.8312	5.0839	7.671086	-0.566236	14.993480	0.000000	0.000000	0.000000	0.209278	-0.301927	-2.788099	0.638800	-1.043304	-9.289995	0.000000	0.000000	0.000000	0.000000	0.000000	0.000000	0.000000	0.000000	-9.626302	33.393520	10.813340	-60.773460	1.851825	-34.840010	-0.027935	0.000000	0.000000	0.000000	0.000000	0.000000	0.000000	0.000000	0.000000	0.000000	0.000000	0.000000	0.000000	0.000000	0.000000	0.000000	0.000000	0.000000	0.000000	0.000000	0.000000	0.000000	0.000000	0.000000	0.000000	0.000000	0.000000	0.000000	0.000000	0.000000	0.000000	0.000000	0.000000	0.000000	0.000000	0.000000	0.000000	0.000000	0.000000	0.000000	0.000000	0.000000	0.000000	0.000000	0.000000	0.000000	0.000000	0.000000	0.000000	0.000000	0.000000	7.974245	45.056270	-9.944077	63.057280	15.608760	62.331970	0.455163	0.000000	0.000000	0.000000	0.000000	0.000000	0.000000	0.000000	0.000000	0.000000	0.000000	0.000000	0.000000	0.000000	0.000000	0.000000	0.000000	0.000000	0.000000	0.000000	0.000000	0.000000	0.000000	0.000000	0.000000	0.000000	0.000000	0.000000	0.000000	0.000000	0.000000	0.000000	0.000000	0.000000	0.000000	0.000000	0.000000	0.000000	0.000000	0.000000	0.000000	0.000000	0.000000	0.000000	0.000000	0.000000	0.000000	0.000000	0.000000	-99.398990	11.488850	-7.921178	74.271560	-1.103868	1.089907	-0.298657	0.226483	0.106987	0.000000	0.000000	0.000000	-90.381320	10.690670	-0.625142	63.370410	6.481385	-11.431120	-0.739502	0.083906	0.040958	0.000000	0.000000	0.000000
	-0.9529	48.7361	7.5902	7.619893	-1.367313	14.748880	0.000000	0.000000	0.000000	0.294056	-0.103715	-2.685611	0.961428	-0.392925	-8.951141	0.000000	0.000000	0.000000	0.000000	0.000000	0.000000	0.000000	0.000000	-9.956257	33.030000	10.598870	-60.456250	1.704319	-37.934520	-0.074171	0.000000	0.000000	0.000000	0.000000	0.000000	0.000000	0.000000	0.000000	0.000000	0.000000	0.000000	0.000000	0.000000	0.000000	0.000000	0.000000	0.000000	0.000000	0.000000	0.000000	0.000000	0.000000	0.000000	0.000000	0.000000	0.000000	0.000000	0.000000	0.000000	0.000000	0.000000	0.000000	0.000000	0.000000	0.000000	0.000000	0.000000	0.000000	0.000000	0.000000	0.000000	0.000000	0.000000	0.000000	0.000000	0.000000	0.000000	0.000000	0.000000	0.000000	8.521456	44.661820	-9.839842	63.577390	14.759830	59.854950	0.437221	0.000000	0.000000	0.000000	0.000000	0.000000	0.000000	0.000000	0.000000	0.000000	0.000000	0.000000	0.000000	0.000000	0.000000	0.000000	0.000000	0.000000	0.000000	0.000000	0.000000	0.000000	0.000000	0.000000	0.000000	0.000000	0.000000	0.000000	0.000000	0.000000	0.000000	0.000000	0.000000	0.000000	0.000000	0.000000	0.000000	0.000000	0.000000	0.000000	0.000000	0.000000	0.000000	0.000000	0.000000	0.000000	0.000000	0.000000	0.000000	-99.326680	10.796710	-7.008216	74.105350	-0.993562	0.700242	-0.352041	0.178867	0.086228	0.000000	0.000000	0.000000	-90.952340	9.690749	0.163320	64.616030	6.159446	-11.394530	-0.826345	-0.137875	-0.067328	0.000000	0.000000	0.000000
	-1.4335	48.7846	10.0748	7.569755	-1.938364	14.599130	0.000000	0.000000	0.000000	0.354045	0.029557	-2.657566	1.197371	0.061561	-8.865423	0.000000	0.000000	0.000000	0.000000	0.000000	0.000000	0.000000	0.000000	-10.191990	32.734050	10.167410	-59.723290	2.064495	-40.752080	-0.100323	0.000000	0.000000	0.000000	0.000000	0.000000	0.000000	0.000000	0.000000	0.000000	0.000000	0.000000	0.000000	0.000000	0.000000	0.000000	0.000000	0.000000	0.000000	0.000000	0.000000	0.000000	0.000000	0.000000	0.000000	0.000000	0.000000	0.000000	0.000000	0.000000	0.000000	0.000000	0.000000	0.000000	0.000000	0.000000	0.000000	0.000000	0.000000	0.000000	0.000000	0.000000	0.000000	0.000000	0.000000	0.000000	0.000000	0.000000	0.000000	0.000000	0.000000	8.940161	43.965150	-9.247732	64.285320	13.618860	57.825310	0.384614	0.000000	0.000000	0.000000	0.000000	0.000000	0.000000	0.000000	0.000000	0.000000	0.000000	0.000000	0.000000	0.000000	0.000000	0.000000	0.000000	0.000000	0.000000	0.000000	0.000000	0.000000	0.000000	0.000000	0.000000	0.000000	0.000000	0.000000	0.000000	0.000000	0.000000	0.000000	0.000000	0.000000	0.000000	0.000000	0.000000	0.000000	0.000000	0.000000	0.000000	0.000000	0.000000	0.000000	0.000000	0.000000	0.000000	0.000000	0.000000	-99.174270	10.300040	-6.308726	73.911350	-0.894039	0.352681	-0.237076	0.158553	0.076220	0.000000	0.000000	0.000000	-91.089750	9.091408	0.752160	65.325850	6.028625	-11.470190	-0.902296	-0.249442	-0.121657	0.000000	0.000000	0.000000
	-1.8554	48.8306	12.4695	7.522316	-2.131206	14.436310	0.000000	0.000000	0.000000	0.386890	0.099931	-2.662826	1.292813	0.240294	-8.873197	0.000000	0.000000	0.000000	0.000000	0.000000	0.000000	0.000000	0.000000	-10.293980	32.553160	9.828284	-58.766840	2.667615	-43.652310	-0.128802	0.000000	0.000000	0.000000	0.000000	0.000000	0.000000	0.000000	0.000000	0.000000	0.000000	0.000000	0.000000	0.000000	0.000000	0.000000	0.000000	0.000000	0.000000	0.000000	0.000000	0.000000	0.000000	0.000000	0.000000	0.000000	0.000000	0.000000	0.000000	0.000000	0.000000	0.000000	0.000000	0.000000	0.000000	0.000000	0.000000	0.000000	0.000000	0.000000	0.000000	0.000000	0.000000	0.000000	0.000000	0.000000	0.000000	0.000000	0.000000	0.000000	0.000000	9.117450	43.122040	-8.428762	64.789510	12.559970	56.663630	0.326403	0.000000	0.000000	0.000000	0.000000	0.000000	0.000000	0.000000	0.000000	0.000000	0.000000	0.000000	0.000000	0.000000	0.000000	0.000000	0.000000	0.000000	0.000000	0.000000	0.000000	0.000000	0.000000	0.000000	0.000000	0.000000	0.000000	0.000000	0.000000	0.000000	0.000000	0.000000	0.000000	0.000000	0.000000	0.000000	0.000000	0.000000	0.000000	0.000000	0.000000	0.000000	0.000000	0.000000	0.000000	0.000000	0.000000	0.000000	0.000000	-99.042870	10.089820	-6.038239	73.895500	-0.858111	0.226492	-0.087468	0.137903	0.066052	0.000000	0.000000	0.000000	-91.091270	8.884220	0.947074	65.597480	5.974343	-11.488120	-0.859556	-0.230664	-0.112443	0.000000	0.000000	0.000000
	-2.1171	48.7898	14.8914	7.440499	-2.170576	14.301570	0.000000	0.000000	0.000000	0.393460	0.113996	-2.666576	1.341594	0.331146	-8.899047	0.000000	0.000000	0.000000	0.000000	0.000000	0.000000	0.000000	0.000000	-10.352480	32.362350	9.508640	-57.512050	3.432769	-46.834810	-0.163654	0.000000	0.000000	0.000000	0.000000	0.000000	0.000000	0.000000	0.000000	0.000000	0.000000	0.000000	0.000000	0.000000	0.000000	0.000000	0.000000	0.000000	0.000000	0.000000	0.000000	0.000000	0.000000	0.000000	0.000000	0.000000	0.000000	0.000000	0.000000	0.000000	0.000000	0.000000	0.000000	0.000000	0.000000	0.000000	0.000000	0.000000	0.000000	0.000000	0.000000	0.000000	0.000000	0.000000	0.000000	0.000000	0.000000	0.000000	0.000000	0.000000	0.000000	9.213085	42.287500	-7.898555	64.719370	11.772180	56.709990	0.299972	0.000000	0.000000	0.000000	0.000000	0.000000	0.000000	0.000000	0.000000	0.000000	0.000000	0.000000	0.000000	0.000000	0.000000	0.000000	0.000000	0.000000	0.000000	0.000000	0.000000	0.000000	0.000000	0.000000	0.000000	0.000000	0.000000	0.000000	0.000000	0.000000	0.000000	0.000000	0.000000	0.000000	0.000000	0.000000	0.000000	0.000000	0.000000	0.000000	0.000000	0.000000	0.000000	0.000000	0.000000	0.000000	0.000000	0.000000	0.000000	-98.979870	10.014200	-5.992583	74.103610	-0.864185	0.241103	-0.004376	0.157948	0.075529	0.000000	0.000000	0.000000	-91.085460	8.911551	0.934659	65.715970	5.958723	-11.513650	-0.827279	-0.119867	-0.058354	0.000000	0.000000	0.000000
